<svg width="64" height="64" viewBox="0 0 64 64" xmlns="http://www.w3.org/2000/svg">
  <!-- Background circle -->
  <circle cx="32" cy="32" r="30" fill="#2c3e50" stroke="#34495e" stroke-width="2"/>
  
  <!-- Berserker axe -->
  <path d="M16 16 L28 28 L24 32 L16 24 Z" fill="#95a5a6" stroke="#7f8c8d" stroke-width="2"/>
  
  <!-- Axe blade -->
  <path d="M16 16 L8 20 L12 24 L20 20 Z" fill="#bdc3c7" stroke="#95a5a6" stroke-width="1"/>
  
  <!-- Rage aura (red energy) -->
  <circle cx="32" cy="32" r="20" fill="none" stroke="#e74c3c" stroke-width="3" opacity="0.6" stroke-dasharray="8,4"/>
  <circle cx="32" cy="32" r="24" fill="none" stroke="#e74c3c" stroke-width="2" opacity="0.4" stroke-dasharray="6,6"/>
  
  <!-- Speed lines -->
  <line x1="40" y1="16" x2="48" y2="8" stroke="#f39c12" stroke-width="2" stroke-linecap="round"/>
  <line x1="48" y1="24" x2="56" y2="16" stroke="#f39c12" stroke-width="2" stroke-linecap="round"/>
  <line x1="48" y1="40" x2="56" y2="32" stroke="#f39c12" stroke-width="2" stroke-linecap="round"/>
  <line x1="48" y1="48" x2="56" y2="40" stroke="#f39c12" stroke-width="2" stroke-linecap="round"/>
  
  <!-- Berserker eyes (glowing) -->
  <circle cx="28" cy="28" r="2" fill="#e74c3c"/>
  <circle cx="36" cy="28" r="2" fill="#e74c3c"/>
  <circle cx="28" cy="28" r="1" fill="#f1c40f"/>
  <circle cx="36" cy="28" r="1" fill="#f1c40f"/>
  
  <!-- Blood splatter effect -->
  <circle cx="44" cy="44" r="1" fill="#e74c3c" opacity="0.8"/>
  <circle cx="42" cy="46" r="0.5" fill="#e74c3c" opacity="0.6"/>
  <circle cx="46" cy="42" r="0.5" fill="#e74c3c" opacity="0.6"/>
</svg>
