<svg width="64" height="64" viewBox="0 0 64 64" xmlns="http://www.w3.org/2000/svg">
  <!-- Background circle -->
  <circle cx="32" cy="32" r="30" fill="#2c3e50" stroke="#34495e" stroke-width="2"/>
  
  <!-- Fireball in center -->
  <circle cx="32" cy="32" r="12" fill="#e74c3c" stroke="#c0392b" stroke-width="2"/>
  <circle cx="30" cy="30" r="8" fill="#f39c12" opacity="0.8"/>
  <circle cx="28" cy="28" r="4" fill="#f1c40f" opacity="0.9"/>
  
  <!-- Flames radiating outward -->
  <path d="M32 8 Q28 12 32 16 Q36 12 32 8" fill="#e74c3c" opacity="0.7"/>
  <path d="M56 32 Q52 28 56 24 Q60 28 56 32" fill="#e74c3c" opacity="0.7"/>
  <path d="M32 56 Q36 52 32 48 Q28 52 32 56" fill="#e74c3c" opacity="0.7"/>
  <path d="M8 32 Q12 36 8 40 Q4 36 8 32" fill="#e74c3c" opacity="0.7"/>
  
  <!-- Diagonal flames -->
  <path d="M48 16 Q44 20 48 24 Q52 20 48 16" fill="#f39c12" opacity="0.6"/>
  <path d="M48 48 Q52 44 48 40 Q44 44 48 48" fill="#f39c12" opacity="0.6"/>
  <path d="M16 48 Q12 44 16 40 Q20 44 16 48" fill="#f39c12" opacity="0.6"/>
  <path d="M16 16 Q20 20 16 24 Q12 20 16 16" fill="#f39c12" opacity="0.6"/>
  
  <!-- Spark effects -->
  <circle cx="20" cy="20" r="2" fill="#f1c40f"/>
  <circle cx="44" cy="20" r="2" fill="#f1c40f"/>
  <circle cx="20" cy="44" r="2" fill="#f1c40f"/>
  <circle cx="44" cy="44" r="2" fill="#f1c40f"/>
</svg>
