<svg width="64" height="64" viewBox="0 0 64 64" xmlns="http://www.w3.org/2000/svg">
  <!-- Background circle -->
  <circle cx="32" cy="32" r="30" fill="#2c3e50" stroke="#34495e" stroke-width="2"/>
  
  <!-- Main shield with jagged, spikey edges -->
  <path d="M32 8 L20 16 L18 20 L20 26 L22 28 L20 32 L22 36 L20 42 L22 48 L32 56 L42 48 L44 42 L42 36 L44 32 L42 28 L44 26 L42 20 L44 16 Z" fill="#e74c3c" stroke="#c0392b" stroke-width="2"/>
  
  <!-- Large center spikes -->
  <path d="M26 20 L28 12 L30 20" fill="#f39c12" stroke="#e67e22" stroke-width="1"/>
  <path d="M32 18 L34 10 L36 18" fill="#f39c12" stroke="#e67e22" stroke-width="1"/>
  <path d="M38 20 L40 12 L42 20" fill="#f39c12" stroke="#e67e22" stroke-width="1"/>
  
  <!-- Secondary spikes -->
  <path d="M24 24 L25 20 L26 24" fill="#f39c12" stroke="#e67e22" stroke-width="1"/>
  <path d="M38 24 L39 20 L40 24" fill="#f39c12" stroke="#e67e22" stroke-width="1"/>
  <path d="M24 40 L25 44 L26 40" fill="#f39c12" stroke="#e67e22" stroke-width="1"/>
  <path d="M38 40 L39 44 L40 40" fill="#f39c12" stroke="#e67e22" stroke-width="1"/>
  
  <!-- Dash lines with spikey ends -->
  <line x1="8" y1="32" x2="20" y2="32" stroke="#3498db" stroke-width="3" stroke-linecap="round"/>
  <path d="M20 30 L22 32 L20 34" fill="#3498db"/>
  <line x1="44" y1="32" x2="56" y2="32" stroke="#3498db" stroke-width="3" stroke-linecap="round"/>
  <path d="M44 30 L46 32 L44 34" fill="#3498db"/>
  
  <!-- Thorn spikes around the perimeter -->
  <path d="M16 20 L14 16 L12 20" fill="#27ae60" stroke="#229954" stroke-width="1"/>
  <path d="M52 20 L50 16 L48 20" fill="#27ae60" stroke="#229954" stroke-width="1"/>
  <path d="M16 44 L14 48 L12 44" fill="#27ae60" stroke="#229954" stroke-width="1"/>
  <path d="M52 44 L50 48 L48 44" fill="#27ae60" stroke="#229954" stroke-width="1"/>
  
  <!-- Additional corner thorns -->
  <path d="M12 12 L10 8 L8 12" fill="#27ae60" stroke="#229954" stroke-width="1"/>
  <path d="M56 12 L54 8 L52 12" fill="#27ae60" stroke="#229954" stroke-width="1"/>
  <path d="M12 52 L10 56 L8 52" fill="#27ae60" stroke="#229954" stroke-width="1"/>
  <path d="M56 52 L54 56 L52 52" fill="#27ae60" stroke="#229954" stroke-width="1"/>
  
  <!-- Side thorns -->
  <path d="M8 26 L6 22 L4 26" fill="#27ae60" stroke="#229954" stroke-width="1"/>
  <path d="M8 38 L6 42 L4 38" fill="#27ae60" stroke="#229954" stroke-width="1"/>
  <path d="M60 26 L58 22 L56 26" fill="#27ae60" stroke="#229954" stroke-width="1"/>
  <path d="M60 38 L58 42 L56 38" fill="#27ae60" stroke="#229954" stroke-width="1"/>
</svg>
