<?xml version="1.0" encoding="UTF-8" standalone="no"?>
<!-- Created with Inkscape (http://www.inkscape.org/) -->

<svg
   width="210mm"
   height="297mm"
   viewBox="0 0 210 297"
   version="1.1"
   id="svg1"
   inkscape:version="1.4.2 (f4327f4, 2025-05-13)"
   sodipodi:docname="heroes.svg"
   xmlns:inkscape="http://www.inkscape.org/namespaces/inkscape"
   xmlns:sodipodi="http://sodipodi.sourceforge.net/DTD/sodipodi-0.dtd"
   xmlns="http://www.w3.org/2000/svg"
   xmlns:svg="http://www.w3.org/2000/svg">
  <sodipodi:namedview
     id="namedview1"
     pagecolor="#ffffff"
     bordercolor="#000000"
     borderopacity="0.25"
     inkscape:showpageshadow="2"
     inkscape:pageopacity="0.0"
     inkscape:pagecheckerboard="0"
     inkscape:deskcolor="#d1d1d1"
     inkscape:document-units="mm"
     inkscape:zoom="0.49827319"
     inkscape:cx="-172.59608"
     inkscape:cy="587.02737"
     inkscape:window-width="1920"
     inkscape:window-height="1000"
     inkscape:window-x="-9"
     inkscape:window-y="-9"
     inkscape:window-maximized="1"
     inkscape:current-layer="layer2" />
  <defs
     id="defs1" />
  <g
     inkscape:label="Thorndive"
     inkscape:groupmode="layer"
     id="layer1">
    <path
       sodipodi:type="star"
       style="fill:#880088;fill-opacity:1;stroke:#000000;stroke-width:1.5;stroke-dasharray:none;stroke-opacity:1"
       id="path1"
       inkscape:flatsided="false"
       sodipodi:sides="11"
       sodipodi:cx="46.183311"
       sodipodi:cy="99.12516"
       sodipodi:r1="38.731201"
       sodipodi:r2="31.57737"
       sodipodi:arg1="0.67549794"
       sodipodi:arg2="0.57669386"
       inkscape:rounded="0"
       inkscape:randomized="0"
       d="m 76.408974,123.34324 -3.755303,-7.00035 -14.136195,19.49704 0.625509,-7.91933 -22.433017,8.75934 4.807726,-6.32399 -23.607515,-4.75937 7.463525,-2.72083 -17.2867937,-16.76703 7.7497077,1.74618 -5.477638,-23.451262 5.575412,5.658789 8.070629,-22.689895 1.630963,7.774771 19.056529,-14.724642 -2.831305,7.422319 23.992115,-2.08442 -6.394654,4.713332 21.310374,11.217591 -7.927745,0.507897 11.86274,20.9581 -6.943834,-3.858797 z"
       inkscape:transform-center-x="-0.019818391"
       inkscape:transform-center-y="1.8984709"
       inkscape:export-filename="..\public\assets\public\assets\public\assets\heroes\hero_thorndive.png"
       inkscape:export-xdpi="96"
       inkscape:export-ydpi="96"
       transform="translate(-5.3100054,-58.94106)" />
  </g>
  <g
     inkscape:groupmode="layer"
     id="layer2"
     inkscape:label="Hookshot"
     inkscape:export-filename="..\public\assets\public\assets\heroes\hero_hookshot.png"
     inkscape:export-xdpi="96"
     inkscape:export-ydpi="96"
     style="stroke-width:1.6;stroke-dasharray:none">
    <ellipse
       style="fill:#880088;fill-opacity:1;stroke:#000000;stroke-width:1.6;stroke-linejoin:miter;stroke-dasharray:none;stroke-opacity:1"
       id="path2"
       cx="162.48642"
       cy="50.219658"
       rx="34.637486"
       ry="35.012959" />
    <path
       style="fill:#880088;fill-opacity:1;stroke:#000000;stroke-width:1.6;stroke-linejoin:miter;stroke-dasharray:none;stroke-opacity:1"
       d="m 128.19036,51.43995 c 0.0344,-2.204641 -0.2733,-4.421391 -0.75095,-6.570798 -0.11195,-0.50375 -0.32875,-0.987975 -0.37547,-1.501896 -0.16896,-1.858457 0.18575,-3.774517 0,-5.632112 -0.0635,-0.635015 -0.32248,-1.24139 -0.37548,-1.877369 -0.0364,-0.436541 0.0512,-0.879107 0,-1.314159 -0.1485,-1.262256 -0.40687,-2.503998 -0.56321,-3.754742 -0.17382,-1.39056 -0.0923,-3.496823 0,-4.881162 0.33511,-5.026692 0.0345,1.991801 0.37547,-2.440582 0.0841,-1.093477 -0.16688,-2.294526 0,-3.379267 0.0693,-0.450284 0.3062,-0.863875 0.37548,-1.314159 0.19203,-1.248221 -0.11972,-2.524936 0.18774,-3.754741 0.0215,-0.08586 0.15975,-0.103778 0.18773,-0.187737 0.22205,-0.666153 -0.30423,-0.09499 0.18774,-0.750948 0.3213,-0.428407 0.72075,-0.566819 1.12642,-0.938685 1.4689,-1.346492 2.80011,-2.865268 4.50569,-3.942478 1.63844,-1.0348042 3.49878,-1.3326658 5.25664,-2.0651076 0.59473,-0.247804 1.08413,-0.7185033 1.68963,-0.938685 2.80617,-1.0204233 0.24445,0.2381321 2.81606,-0.7509484 0.65302,-0.2511612 1.31764,-0.5188923 1.87737,-0.938685 0.2832,-0.2124003 0.4564,-0.5545841 0.75094,-0.7509483 0.10414,-0.069425 0.25275,0.024545 0.37548,0 1.03909,-0.2078181 0.0699,-0.2199426 1.31416,-0.3754739 1.1007,-0.1375876 2.05127,-0.1877373 3.19153,-0.1877373 0.26154,0 2.01459,-0.2129922 2.44058,0 0.73666,0.3683294 0.45656,1.7918441 0.37547,2.4405818 -0.13462,1.07702 -0.60873,2.3685364 -1.31416,3.1915295 -0.45767,0.5339575 -1.06267,0.9528701 -1.50189,1.5018962 -0.2819,0.352378 -0.40428,0.837531 -0.75095,1.126422 -0.38759,0.322991 -0.92019,0.435772 -1.31416,0.750949 -0.46912,0.375291 -0.77278,0.84264 -1.12642,1.314159 -0.0626,0.06258 -0.12516,0.125158 -0.18774,0.187737 -0.0626,0 -0.14349,-0.04425 -0.18774,0 -0.0171,0.01715 0,2.064171 0,2.440581 0,2.690898 0,5.381796 0,8.072693 0,0.703573 -0.23842,3.039466 0,3.754741 0.17676,0.530277 0.4482,2.440582 0.93869,2.440582"
       id="path4" />
    <path
       style="fill:#880088;fill-opacity:1;stroke:#000000;stroke-width:1.5;stroke-linejoin:miter;stroke-dasharray:none;stroke-opacity:1"
       d="m 196.86591,51.421922 c -0.0344,-2.204641 0.2733,-4.421391 0.75095,-6.570798 0.11195,-0.50375 0.32875,-0.987975 0.37547,-1.501896 0.16896,-1.858457 -0.18575,-3.774517 0,-5.632112 0.0635,-0.635015 0.32248,-1.24139 0.37548,-1.877369 0.0364,-0.436541 -0.0512,-0.879107 0,-1.314159 0.1485,-1.262256 0.40687,-2.503998 0.56321,-3.754742 0.17382,-1.39056 0.0923,-3.496823 0,-4.881162 -0.33511,-5.026692 -0.0345,1.991801 -0.37547,-2.440582 -0.0841,-1.093477 0.16688,-2.294526 0,-3.379267 -0.0693,-0.450284 -0.3062,-0.863875 -0.37548,-1.314159 -0.19203,-1.248221 0.11972,-2.524936 -0.18774,-3.754741 -0.0215,-0.08586 -0.15975,-0.103778 -0.18773,-0.187737 -0.22205,-0.666153 0.30423,-0.09499 -0.18774,-0.750948 -0.3213,-0.428407 -0.72075,-0.566819 -1.12642,-0.938685 -1.4689,-1.346492 -2.80011,-2.865268 -4.50569,-3.9424781 -1.63844,-1.034804 -3.49878,-1.332666 -5.25664,-2.065108 -0.59473,-0.247804 -1.08413,-0.718503 -1.68963,-0.938685 -2.80617,-1.020423 -0.24445,0.238132 -2.81606,-0.750948 -0.65302,-0.251161 -1.31764,-0.518893 -1.87737,-0.938685 -0.2832,-0.212401 -0.4564,-0.554584 -0.75094,-0.750949 -0.10414,-0.06943 -0.25275,0.02454 -0.37548,0 -1.03909,-0.207818 -0.0699,-0.219942 -1.31416,-0.375473 -1.1007,-0.137588 -2.05127,-0.187738 -3.19153,-0.187738 -0.26154,0 -2.01459,-0.212992 -2.44058,0 -0.73666,0.36833 -0.45656,1.791844 -0.37547,2.440582 0.13462,1.07702 0.60873,2.368536 1.31416,3.19153 0.45767,0.533957 1.06267,0.95287 1.50189,1.5018961 0.2819,0.352378 0.40428,0.837531 0.75095,1.126422 0.38759,0.322991 0.92019,0.435772 1.31416,0.750949 0.46912,0.375291 0.77278,0.84264 1.12642,1.314159 0.0626,0.06258 0.12516,0.125158 0.18774,0.187737 0.0626,0 0.14349,-0.04425 0.18774,0 0.0171,0.01715 0,2.064171 0,2.440581 0,2.690898 0,5.381796 0,8.072693 0,0.703573 0.23842,3.039466 0,3.754741 -0.17676,0.530277 -0.4482,2.440582 -0.93869,2.440582"
       id="path4-8" />
  </g>
  <g
     inkscape:groupmode="layer"
     id="layer4"
     inkscape:label="Default"
     inkscape:export-filename="..\public\assets\heroes\hero_base.png"
     inkscape:export-xdpi="96"
     inkscape:export-ydpi="96">
    <circle
       style="fill:#880088;fill-opacity:1;stroke:#000000;stroke-width:1.5;stroke-linejoin:miter;stroke-dasharray:none;stroke-opacity:1"
       id="path5"
       cx="45.432365"
       cy="150.18964"
       r="37.922882" />
  </g>
  <g
     inkscape:groupmode="layer"
     id="g13"
     inkscape:label="Sniper"
     inkscape:export-filename="..\public\assets\heroes\hero_sniper.png"
     inkscape:export-xdpi="96"
     inkscape:export-ydpi="96">
    <circle
       style="fill:#880088;fill-opacity:1;stroke:#000000;stroke-width:1.5;stroke-linejoin:miter;stroke-dasharray:none;stroke-opacity:1"
       id="circle13"
       cx="154.81848"
       cy="245.76973"
       r="37.922882" />
    <ellipse
       style="fill:#880088;fill-opacity:1;stroke:#000000;stroke-width:1.5;stroke-linejoin:miter;stroke-dasharray:none;stroke-opacity:1"
       id="path13"
       cx="127.84892"
       cy="270.15359"
       rx="12.953856"
       ry="13.517067" />
    <ellipse
       style="fill:#880088;fill-opacity:1;stroke:#000000;stroke-width:1.5;stroke-linejoin:miter;stroke-dasharray:none;stroke-opacity:1"
       id="path13-2"
       cx="182.25011"
       cy="271.35834"
       rx="12.953856"
       ry="13.517067" />
    <ellipse
       style="fill:#880088;fill-opacity:1;stroke:#000000;stroke-width:1.5;stroke-linejoin:miter;stroke-dasharray:none;stroke-opacity:1"
       id="path13-2-2"
       cx="182.21136"
       cy="219.16559"
       rx="12.953856"
       ry="13.517067" />
    <ellipse
       style="fill:#880088;fill-opacity:1;stroke:#000000;stroke-width:1.5;stroke-linejoin:miter;stroke-dasharray:none;stroke-opacity:1"
       id="path13-2-6"
       cx="125.07889"
       cy="220.84546"
       rx="12.953856"
       ry="13.517067" />
  </g>
  <g
     inkscape:groupmode="layer"
     id="layer5"
     inkscape:label="Mercenary"
     inkscape:export-filename="..\public\assets\public\assets\public\assets\heroes\hero_mercenary.png"
     inkscape:export-xdpi="96"
     inkscape:export-ydpi="96">
    <rect
       style="fill:#880088;fill-opacity:1;stroke:#000000;stroke-width:1.42302;stroke-linejoin:miter;stroke-dasharray:none;stroke-opacity:1"
       id="rect6"
       width="61.623741"
       height="61.623741"
       x="-251.65648"
       y="9.5720568"
       transform="matrix(-0.62272733,-0.78243893,0.62272733,-0.78243893,0,0)" />
  </g>
  <g
     inkscape:groupmode="layer"
     id="layer6"
     inkscape:label="Pyromancer">
    <path
       id="path12"
       style="fill:#880088;stroke:#000000;stroke-width:1.5"
       d="m 70.401386,250.34735 c 0.651413,16.62858 -13.490461,30.1318 -30.131794,30.1318 -16.641333,0 -35.7723919,-14.47557 -30.131794,-30.1318 8.334713,-23.13411 17.896226,-56.26655 30.131794,-30.13179 11.026616,23.55248 28.54925,-10.26571 30.131794,30.13179 z"
       sodipodi:nodetypes="sssss"
       inkscape:export-filename="..\public\assets\public\assets\heroes\hero_pyromancer.png"
       inkscape:export-xdpi="96"
       inkscape:export-ydpi="96" />
  </g>
</svg>
